<svg width="43" height="13" viewBox="0 0 43 13" fill="none" xmlns="http://www.w3.org/2000/svg">
<path d="M0.409091 12.5V0.863636H1.81818V11.25H7.22727V12.5H0.409091ZM18.7741 6.68182C18.7741 7.90909 18.5526 8.9697 18.1094 9.86364C17.6662 10.7576 17.0582 11.447 16.2855 11.9318C15.5128 12.4167 14.6302 12.6591 13.6378 12.6591C12.6454 12.6591 11.7628 12.4167 10.9901 11.9318C10.2173 11.447 9.60938 10.7576 9.16619 9.86364C8.72301 8.9697 8.50142 7.90909 8.50142 6.68182C8.50142 5.45455 8.72301 4.39394 9.16619 3.5C9.60938 2.60606 10.2173 1.91667 10.9901 1.43182C11.7628 0.946969 12.6454 0.704545 13.6378 0.704545C14.6302 0.704545 15.5128 0.946969 16.2855 1.43182C17.0582 1.91667 17.6662 2.60606 18.1094 3.5C18.5526 4.39394 18.7741 5.45455 18.7741 6.68182ZM17.4105 6.68182C17.4105 5.67424 17.242 4.82386 16.9048 4.13068C16.5715 3.4375 16.1188 2.91288 15.5469 2.55682C14.9787 2.20076 14.3423 2.02273 13.6378 2.02273C12.9332 2.02273 12.295 2.20076 11.723 2.55682C11.1548 2.91288 10.7022 3.4375 10.3651 4.13068C10.0317 4.82386 9.86506 5.67424 9.86506 6.68182C9.86506 7.68939 10.0317 8.53977 10.3651 9.23295C10.7022 9.92614 11.1548 10.4508 11.723 10.8068C12.295 11.1629 12.9332 11.3409 13.6378 11.3409C14.3423 11.3409 14.9787 11.1629 15.5469 10.8068C16.1188 10.4508 16.5715 9.92614 16.9048 9.23295C17.242 8.53977 17.4105 7.68939 17.4105 6.68182ZM29.098 4.5C28.973 4.11742 28.8082 3.77462 28.6037 3.47159C28.4029 3.16477 28.1624 2.90341 27.8821 2.6875C27.6056 2.47159 27.2912 2.30682 26.9389 2.19318C26.5866 2.07955 26.2003 2.02273 25.7798 2.02273C25.0904 2.02273 24.4635 2.20076 23.8991 2.55682C23.3348 2.91288 22.8859 3.4375 22.5526 4.13068C22.2192 4.82386 22.0526 5.67424 22.0526 6.68182C22.0526 7.68939 22.2211 8.53977 22.5582 9.23295C22.8954 9.92614 23.3518 10.4508 23.9276 10.8068C24.5033 11.1629 25.151 11.3409 25.8707 11.3409C26.5374 11.3409 27.1245 11.1989 27.6321 10.9148C28.1435 10.6269 28.5412 10.2216 28.8253 9.69886C29.1132 9.17235 29.2571 8.55303 29.2571 7.84091L29.6889 7.93182H26.1889V6.68182H30.6207V7.93182C30.6207 8.89015 30.4162 9.72348 30.0071 10.4318C29.6018 11.1402 29.0412 11.6894 28.3253 12.0795C27.6132 12.4659 26.795 12.6591 25.8707 12.6591C24.8404 12.6591 23.9351 12.4167 23.1548 11.9318C22.3783 11.447 21.7723 10.7576 21.3366 9.86364C20.9048 8.9697 20.6889 7.90909 20.6889 6.68182C20.6889 5.76136 20.812 4.93371 21.0582 4.19886C21.3082 3.46023 21.6605 2.83144 22.1151 2.3125C22.5696 1.79356 23.1075 1.39583 23.7287 1.11932C24.3499 0.842803 25.0336 0.704545 25.7798 0.704545C26.3935 0.704545 26.9654 0.797348 27.4957 0.982954C28.0298 1.16477 28.5052 1.42424 28.9219 1.76136C29.3423 2.0947 29.6927 2.49432 29.973 2.96023C30.2533 3.42235 30.4465 3.93561 30.5526 4.5H29.098ZM42.8523 6.68182C42.8523 7.90909 42.6307 8.9697 42.1875 9.86364C41.7443 10.7576 41.1364 11.447 40.3636 11.9318C39.5909 12.4167 38.7083 12.6591 37.7159 12.6591C36.7235 12.6591 35.8409 12.4167 35.0682 11.9318C34.2955 11.447 33.6875 10.7576 33.2443 9.86364C32.8011 8.9697 32.5795 7.90909 32.5795 6.68182C32.5795 5.45455 32.8011 4.39394 33.2443 3.5C33.6875 2.60606 34.2955 1.91667 35.0682 1.43182C35.8409 0.946969 36.7235 0.704545 37.7159 0.704545C38.7083 0.704545 39.5909 0.946969 40.3636 1.43182C41.1364 1.91667 41.7443 2.60606 42.1875 3.5C42.6307 4.39394 42.8523 5.45455 42.8523 6.68182ZM41.4886 6.68182C41.4886 5.67424 41.3201 4.82386 40.983 4.13068C40.6496 3.4375 40.197 2.91288 39.625 2.55682C39.0568 2.20076 38.4205 2.02273 37.7159 2.02273C37.0114 2.02273 36.3731 2.20076 35.8011 2.55682C35.233 2.91288 34.7803 3.4375 34.4432 4.13068C34.1098 4.82386 33.9432 5.67424 33.9432 6.68182C33.9432 7.68939 34.1098 8.53977 34.4432 9.23295C34.7803 9.92614 35.233 10.4508 35.8011 10.8068C36.3731 11.1629 37.0114 11.3409 37.7159 11.3409C38.4205 11.3409 39.0568 11.1629 39.625 10.8068C40.197 10.4508 40.6496 9.92614 40.983 9.23295C41.3201 8.53977 41.4886 7.68939 41.4886 6.68182Z" fill="black"/>
</svg>
