<svg width="14" height="14" viewBox="0 0 14 14" fill="none" xmlns="http://www.w3.org/2000/svg">
<path fill-rule="evenodd" clip-rule="evenodd" d="M12.4545 6.99992C12.4545 10.0123 10.0124 12.4544 6.99992 12.4544C3.98746 12.4544 1.54537 10.0123 1.54537 6.99992C1.54537 3.98746 3.98746 1.54537 6.99992 1.54537C10.0124 1.54537 12.4545 3.98746 12.4545 6.99992ZM13.6666 6.99992C13.6666 10.6818 10.6818 13.6665 6.99992 13.6665C3.31802 13.6665 0.333252 10.6818 0.333252 6.99992C0.333252 3.31802 3.31802 0.333252 6.99992 0.333252C10.6818 0.333252 13.6666 3.31802 13.6666 6.99992ZM10.4986 5.56647C10.7112 5.30796 10.674 4.92603 10.4155 4.71341C10.157 4.50078 9.7751 4.53798 9.5624 4.79649L6.69475 8.283C6.57439 8.42932 6.35644 8.44604 6.21518 8.31979L4.37378 6.67404C4.12421 6.45099 3.74108 6.47248 3.51802 6.72205C3.29497 6.97162 3.31647 7.35475 3.56604 7.57781L6.09012 9.83374C6.37265 10.0862 6.80855 10.0527 7.04926 9.76014L10.4986 5.56647Z" fill="#161617"/>
</svg>
